<?xml version="1.0" standalone="no"?>
<!DOCTYPE svg PUBLIC "-//W3C//DTD SVG 20010904//EN"
 "http://www.w3.org/TR/2001/REC-SVG-20010904/DTD/svg10.dtd">
<svg version="1.0" xmlns="http://www.w3.org/2000/svg"
 width="1329.000000pt" height="317.000000pt" viewBox="0 0 1329.000000 317.000000"
 preserveAspectRatio="xMidYMid meet">

  <g transform="translate(0.000000,317.000000) scale(0.100000,-0.100000)"
  fill="#d81d99" stroke="none">
  <path d="M8820 2594 c-140 -18 -258 -33 -262 -34 -5 0 -8 -45 -8 -100 l0 -99
  78 -3 77 -3 3 -360 c2 -198 0 -474 -3 -612 l-7 -253 -47 0 c-25 0 -52 -4 -59
  -8 -8 -5 -15 -44 -19 -105 l-6 -97 305 0 305 0 7 46 c3 26 6 71 6 100 l0 53
  -42 3 -43 3 -3 138 -3 137 56 0 c85 0 110 -36 189 -271 25 -74 52 -151 61
  -173 l16 -39 237 8 c161 5 239 11 244 18 4 7 8 51 8 100 l0 87 -69 0 c-84 0
  -89 5 -151 147 -54 124 -96 189 -150 235 -23 20 -40 41 -39 47 2 5 62 59 133
  120 107 90 137 110 172 116 40 6 42 7 48 52 3 25 6 70 6 99 l0 54 -274 0 -274
  0 -7 -94 c-4 -52 -4 -99 -1 -105 4 -6 27 -11 52 -11 24 0 44 -3 44 -7 0 -5
  -37 -48 -83 -97 l-82 -88 -69 -6 -69 -5 8 522 c7 505 7 521 -11 520 -11 -1
  -134 -16 -274 -35z"/>
  <path d="M1070 2405 l0 -105 70 0 70 0 0 -585 0 -585 -39 0 c-21 0 -53 -3 -70
  -6 l-31 -6 0 -99 0 -99 405 0 405 0 0 105 0 105 -130 0 -130 0 0 216 0 216
  130 -4 c86 -2 134 -8 142 -16 7 -7 15 -41 18 -75 l5 -62 111 -3 111 -3 6 167
  c4 92 7 206 7 254 l0 87 -93 6 c-130 9 -133 7 -146 -66 -6 -33 -16 -64 -23
  -69 -7 -4 -70 -8 -140 -8 l-128 0 0 265 0 265 63 0 c87 0 238 -19 253 -31 7
  -5 24 -62 39 -125 15 -66 31 -114 38 -114 26 1 218 28 222 32 5 4 -24 417 -30
  436 -3 9 -126 12 -570 12 l-565 0 0 -105z"/>
  <path d="M11770 2306 c-69 -23 -146 -52 -172 -63 -43 -20 -47 -24 -52 -65 -22
  -180 -20 -172 -46 -179 -14 -4 -47 -8 -75 -8 -27 -1 -55 -5 -61 -9 -7 -4 -15
  -50 -19 -104 l-7 -98 86 0 86 0 0 -332 c0 -206 4 -348 11 -372 13 -48 84 -120
  147 -149 85 -39 352 -25 542 30 47 13 88 28 92 32 9 8 -11 182 -21 193 -4 4
  -38 1 -76 -7 -97 -20 -224 -20 -254 1 -46 33 -51 65 -51 328 0 134 3 251 6
  260 5 14 31 16 184 16 207 0 190 -12 190 133 l0 87 -187 0 -186 0 7 175 c5
  139 4 175 -6 174 -7 0 -69 -19 -138 -43z"/>
  <path d="M2613 1987 l-231 -32 -7 -93 c-4 -51 -5 -95 -2 -98 2 -3 37 -8 76
  -11 l71 -6 -2 -311 -3 -311 -62 -3 -63 -3 0 -99 0 -100 354 0 354 0 6 23 c3
  12 6 57 6 100 l0 77 -84 0 c-46 0 -91 3 -100 6 -13 5 -16 25 -16 113 0 169 36
  268 133 368 50 52 83 60 184 43 69 -11 76 -10 88 7 34 44 94 240 95 305 0 23
  -6 29 -37 37 -73 20 -150 24 -204 11 -68 -17 -125 -73 -194 -194 -62 -109 -72
  -122 -79 -115 -3 3 -11 76 -18 162 -7 100 -15 157 -22 156 -6 -1 -115 -15
  -243 -32z"/>
  <path d="M3988 2010 c-66 -11 -151 -37 -216 -66 -62 -27 -252 -150 -252 -163
  0 -11 94 -143 112 -159 12 -10 29 -3 94 36 131 78 237 101 305 66 36 -18 68
  -82 69 -135 l0 -36 -122 -7 c-68 -4 -152 -13 -187 -22 -261 -60 -424 -282
  -328 -446 34 -58 96 -113 167 -147 99 -47 224 -33 404 47 74 32 80 33 92 17 7
  -9 29 -35 50 -57 l37 -40 96 6 c120 9 282 35 299 48 12 11 17 133 6 174 -5 20
  -12 22 -72 20 l-67 -1 0 295 0 295 -33 67 c-81 165 -250 242 -454 208z m112
  -730 c0 -103 -2 -106 -104 -135 -71 -21 -123 -10 -155 32 -34 43 -28 90 18
  133 45 43 89 57 179 59 l62 1 0 -90z"/>
  <path d="M4985 1984 c-115 -18 -222 -33 -237 -33 l-28 -1 0 -100 0 -100 38 0
  c20 0 54 -3 75 -6 l37 -7 -2 -306 -3 -306 -62 -3 -63 -3 0 -99 0 -100 315 0
  315 0 0 99 0 100 -52 3 -53 3 4 260 c3 225 6 261 20 272 39 30 126 66 171 71
  44 4 52 1 79 -25 39 -40 43 -70 39 -348 l-3 -230 -52 -3 -53 -3 0 -100 0 -99
  310 0 310 0 0 100 0 100 -47 0 c-80 0 -77 -14 -69 276 5 170 3 278 -4 313 -23
  119 -95 223 -191 276 -47 26 -64 30 -129 29 -89 -1 -138 -18 -280 -98 -54 -31
  -102 -56 -108 -56 -5 0 -17 36 -26 80 -10 47 -23 79 -29 79 -7 -1 -106 -17
  -222 -35z"/>
  <path d="M6795 2009 c-131 -19 -235 -63 -341 -143 -216 -162 -298 -495 -177
  -718 33 -61 124 -148 189 -181 173 -88 394 -83 643 13 45 17 83 35 85 39 6 8
  -33 172 -43 183 -3 4 -42 -4 -86 -18 -95 -31 -225 -42 -279 -24 -52 17 -93 54
  -124 114 -25 48 -27 59 -27 186 0 130 1 137 30 195 58 115 132 132 310 70
  l100 -35 19 23 c29 34 85 157 92 204 6 42 6 43 -32 59 -89 38 -235 51 -359 33z"/>
  <path d="M7838 2010 c-66 -11 -151 -37 -216 -66 -62 -27 -252 -150 -252 -163
  0 -11 94 -143 112 -159 12 -10 29 -3 94 36 131 78 237 101 305 66 36 -18 68
  -82 69 -135 l0 -36 -122 -7 c-68 -4 -152 -13 -187 -22 -261 -60 -424 -282
  -328 -446 34 -58 96 -113 167 -147 99 -47 224 -33 404 47 74 32 80 33 92 17 7
  -9 29 -35 50 -57 l37 -40 96 6 c120 9 282 35 299 48 12 11 17 133 6 174 -5 20
  -12 22 -72 20 l-67 -1 0 295 0 295 -33 67 c-81 165 -250 242 -454 208z m112
  -730 c0 -103 -2 -106 -104 -135 -71 -21 -123 -10 -155 32 -34 43 -28 90 18
  133 45 43 89 57 179 59 l62 1 0 -90z"/>
  <path d="M10197 1990 c-114 -4 -210 -10 -213 -13 -3 -3 -8 -48 -11 -101 l-6
  -96 57 0 56 0 0 -292 0 -293 30 -63 c36 -77 125 -169 194 -201 105 -49 195
  -39 354 41 l103 51 57 -63 58 -63 134 12 c74 7 164 18 200 24 l65 12 3 103 3
  103 -73 -3 -73 -3 4 425 4 425 -254 -3 c-139 -2 -254 -4 -255 -5 -1 -1 -5 -48
  -9 -104 l-7 -103 61 0 61 0 -2 -282 -3 -283 -40 -19 c-21 -11 -62 -22 -90 -24
  -44 -4 -55 0 -82 22 -49 41 -54 79 -53 459 l1 342 -33 1 c-18 1 -127 -2 -241
  -6z"/>
  </g>
</svg>
